<?xml version="1.0" encoding="UTF-8" standalone="no"?>
<!-- Created with Inkscape (http://www.inkscape.org/) -->

<svg
   width="145.13518mm"
   height="64.407997mm"
   viewBox="0 0 145.13518 64.407997"
   version="1.1"
   id="svg541"
   inkscape:version="1.3.2 (091e20e, 2023-11-25, custom)"
   sodipodi:docname="TAC Logo.svg"
   xmlns:inkscape="http://www.inkscape.org/namespaces/inkscape"
   xmlns:sodipodi="http://sodipodi.sourceforge.net/DTD/sodipodi-0.dtd"
   xmlns="http://www.w3.org/2000/svg"
   xmlns:svg="http://www.w3.org/2000/svg">
  <sodipodi:namedview
     id="namedview543"
     pagecolor="#ffffff"
     bordercolor="#666666"
     borderopacity="1.0"
     inkscape:showpageshadow="2"
     inkscape:pageopacity="0.0"
     inkscape:pagecheckerboard="0"
     inkscape:deskcolor="#d1d1d1"
     inkscape:document-units="mm"
     showgrid="false"
     inkscape:zoom="0.44631734"
     inkscape:cx="816.68348"
     inkscape:cy="538.85426"
     inkscape:window-width="1920"
     inkscape:window-height="1009"
     inkscape:window-x="3832"
     inkscape:window-y="730"
     inkscape:window-maximized="1"
     inkscape:current-layer="layer1" />
  <defs
     id="defs538" />
  <g
     inkscape:label="Layer 1"
     inkscape:groupmode="layer"
     id="layer1"
     transform="translate(-29.692895,-100.29001)">
    <path
       id="rect1897-72-1"
       style="fill:#1a1a1a;stroke-width:0.22941;stroke-linecap:round;stroke-linejoin:round;stop-color:#000000"
       d="m 34.624005,100.29001 -4.93111,11.86239 h 19.357108 v 41.16576 c 0,7.97644 3.335712,11.35878 11.807898,11.37985 V 112.1524 h 27.827794 l 6.523457,-11.86239 z"
       sodipodi:nodetypes="cccsccccc"
       inkscape:export-filename="TAC-Black.png"
       inkscape:export-xdpi="200"
       inkscape:export-ydpi="200" />
    <path
       style="fill:#1a1a1a;stroke:none;stroke-width:0.267464px;stroke-linecap:butt;stroke-linejoin:miter;stroke-opacity:1"
       d="m 164.22108,100.39419 c 6.18535,-7e-4 10.60699,2.89303 10.60699,10.10734 v 5.28099 l -9.48972,6.5626 v -8.44267 c 0,-1.35066 -0.62427,-2.37849 -2.31881,-2.37849 h -22.7033 c -1.32184,0 -2.57997,0.61013 -2.55335,2.3381 l 0.10796,13.97596 16.70793,25.80528 6.99063,0.15764 c 1.37035,0.031 1.60471,-0.50808 1.60471,-1.90193 v -11.07337 l 11.65395,8.20322 v 5.16565 c 0,6.76063 -3.64187,10.5035 -11.0019,10.5035 h -15.8716 l -21.04891,-34.95772 0.0365,-18.72288 c 0.009,-5.43123 1.78328,-10.59414 8.52692,-10.68109 9.54999,-0.12299 19.17604,0.0356 28.75204,0.0577 z"
       id="path2409-9-8"
       sodipodi:nodetypes="ccccssssccssccssccsscc" />
    <path
       style="fill:#ef5b61;fill-opacity:1;stroke-width:0.0563101"
       d="m 66.27005,164.60658 37.13165,-64.31654 37.13169,64.31654 -33.33216,0.0914 v -13.12555 h 9.15338 l -5.33464,-9.79585 h 3.60757 l -5.70556,-10.18318 h 2.94226 l -8.46254,-14.56213 -8.46255,14.56213 h 2.942293 l -5.705595,10.18318 h 3.613921 l -5.340988,9.79585 h 9.153408 v 13.12558 l -33.332139,-0.0917 z"
       id="path4540-1-2-6-5-7-9-6-7"
       sodipodi:nodetypes="cccccccccccccccccccc"
       inkscape:export-filename="..\BaseLogo.png"
       inkscape:export-xdpi="200"
       inkscape:export-ydpi="200" />
  </g>
</svg>
